<svg width="66" height="49" viewBox="0 0 66 49" fill="none" xmlns="http://www.w3.org/2000/svg">
<g id="Badge" filter="url(#filter0_dd_411_208)">
<rect x="9.58984" y="4.74365" width="46.6143" height="30.0304" rx="5.37857" fill="white"/>
<g id="Mastercard">
<path d="M36.2456 13.592H29.3823V25.9256H36.2456V13.592Z" fill="#FF5F00"/>
<path d="M29.8182 19.7588C29.8171 18.571 30.0862 17.3985 30.6053 16.3301C31.1243 15.2617 31.8796 14.3254 32.814 13.592C31.6569 12.6825 30.2672 12.1169 28.8039 11.9598C27.3405 11.8028 25.8624 12.0606 24.5387 12.7038C23.2149 13.3471 22.0988 14.3498 21.318 15.5974C20.5371 16.8449 20.123 18.287 20.123 19.7588C20.123 21.2306 20.5371 22.6727 21.318 23.9202C22.0988 25.1678 23.2149 26.1705 24.5387 26.8137C25.8624 27.457 27.3405 27.7148 28.8039 27.5577C30.2672 27.4007 31.6569 26.8351 32.814 25.9255C31.8796 25.1922 31.1243 24.2559 30.6053 23.1875C30.0863 22.1191 29.8171 20.9466 29.8182 19.7588Z" fill="#EB001B"/>
<path d="M45.5046 19.7588C45.5046 21.2305 45.0906 22.6726 44.3098 23.9202C43.529 25.1678 42.4129 26.1705 41.0892 26.8137C39.7655 27.457 38.2874 27.7148 36.8241 27.5577C35.3607 27.4007 33.9711 26.8351 32.814 25.9255C33.7476 25.1915 34.5023 24.255 35.0212 23.1868C35.5402 22.1185 35.8098 20.9464 35.8098 19.7588C35.8098 18.5712 35.5402 17.3991 35.0212 16.3308C34.5023 15.2626 33.7476 14.3261 32.814 13.592C33.9711 12.6825 35.3607 12.1169 36.8241 11.9598C38.2874 11.8028 39.7655 12.0606 41.0892 12.7039C42.4129 13.3471 43.529 14.3498 44.3098 15.5974C45.0906 16.845 45.5046 18.287 45.5046 19.7588Z" fill="#F79E1B"/>
<path d="M44.7562 24.6192V24.3667H44.8581V24.3153H44.5988V24.3667H44.7006V24.6192H44.7562ZM45.2597 24.6192V24.3148H45.1802L45.0888 24.5242L44.9973 24.3148H44.9178V24.6192H44.9739V24.3896L45.0596 24.5876H45.1178L45.2036 24.3891V24.6192H45.2597Z" fill="#F79E1B"/>
</g>
<rect x="9.47779" y="4.6316" width="46.8384" height="30.2545" rx="5.49062" stroke="#D6DCE5" stroke-width="0.224107"/>
</g>
<defs>
<filter id="filter0_dd_411_208" x="0.401925" y="0.0373883" width="64.9911" height="48.4071" filterUnits="userSpaceOnUse" color-interpolation-filters="sRGB">
<feFlood flood-opacity="0" result="BackgroundImageFix"/>
<feColorMatrix in="SourceAlpha" type="matrix" values="0 0 0 0 0 0 0 0 0 0 0 0 0 0 0 0 0 0 127 0" result="hardAlpha"/>
<feOffset dy="0.448214"/>
<feGaussianBlur stdDeviation="2.24107"/>
<feColorMatrix type="matrix" values="0 0 0 0 0.717647 0 0 0 0 0.717647 0 0 0 0 0.717647 0 0 0 0.08 0"/>
<feBlend mode="normal" in2="BackgroundImageFix" result="effect1_dropShadow_411_208"/>
<feColorMatrix in="SourceAlpha" type="matrix" values="0 0 0 0 0 0 0 0 0 0 0 0 0 0 0 0 0 0 127 0" result="hardAlpha"/>
<feOffset dy="4.48214"/>
<feGaussianBlur stdDeviation="4.48214"/>
<feColorMatrix type="matrix" values="0 0 0 0 0.717647 0 0 0 0 0.717647 0 0 0 0 0.717647 0 0 0 0.08 0"/>
<feBlend mode="normal" in2="effect1_dropShadow_411_208" result="effect2_dropShadow_411_208"/>
<feBlend mode="normal" in="SourceGraphic" in2="effect2_dropShadow_411_208" result="shape"/>
</filter>
</defs>
</svg>
