<svg width="66" height="49" viewBox="0 0 66 49" fill="none" xmlns="http://www.w3.org/2000/svg">
<g id="Badge" filter="url(#filter0_dd_411_212)">
<rect x="9.81836" y="4.74365" width="46.6143" height="30.0304" rx="5.37857" fill="white"/>
<g id="&#239;&#163;&#191; Pay">
<path d="M24.8956 15.8254C25.2066 15.4364 25.4176 14.9141 25.362 14.3804C24.9067 14.403 24.3512 14.6807 24.0296 15.07C23.7408 15.4034 23.4852 15.9475 23.5518 16.4589C24.0628 16.5032 24.5734 16.2034 24.8956 15.8254Z" fill="#000008"/>
<path d="M25.3562 16.5587C24.614 16.5145 23.983 16.9799 23.6286 16.9799C23.274 16.9799 22.7313 16.581 22.1443 16.5917C21.3803 16.603 20.6713 17.035 20.2836 17.722C19.4862 19.0965 20.0732 21.1353 20.8487 22.2547C21.2252 22.8085 21.6791 23.4183 22.2771 23.3964C22.8422 23.3742 23.0636 23.0305 23.7504 23.0305C24.4368 23.0305 24.6363 23.3964 25.2344 23.3853C25.8546 23.3742 26.2424 22.8312 26.619 22.2768C27.051 21.6455 27.2279 21.0359 27.239 21.0025C27.2279 20.9914 26.0429 20.5368 26.032 19.1738C26.0208 18.0325 26.9623 17.4897 27.0066 17.456C26.4749 16.6697 25.6442 16.581 25.3562 16.5587Z" fill="#000008"/>
<path d="M31.8183 15.0142C33.4313 15.0142 34.5545 16.1261 34.5545 17.7449C34.5545 19.3695 33.4082 20.4872 31.7778 20.4872H29.9918V23.3274H28.7015V15.0142L31.8183 15.0142ZM29.9918 19.4041H31.4724C32.5959 19.4041 33.2353 18.7992 33.2353 17.7507C33.2353 16.7022 32.5959 16.1031 31.4782 16.1031H29.9918V19.4041Z" fill="#000008"/>
<path d="M34.8917 21.6049C34.8917 20.5447 35.704 19.8938 37.1443 19.8131L38.8034 19.7152V19.2486C38.8034 18.5745 38.3482 18.1713 37.5879 18.1713C36.8676 18.1713 36.4183 18.5169 36.3089 19.0585H35.1337C35.2028 17.9638 36.136 17.1573 37.6339 17.1573C39.103 17.1573 40.042 17.935 40.042 19.1506V23.3274H38.8494V22.3307H38.8207C38.4694 23.0048 37.7031 23.431 36.9081 23.431C35.7213 23.431 34.8917 22.6936 34.8917 21.6049ZM38.8034 21.0576V20.5794L37.3112 20.6715C36.5681 20.7234 36.1476 21.0518 36.1476 21.5703C36.1476 22.1002 36.5854 22.4459 37.2537 22.4459C38.1235 22.4459 38.8034 21.8468 38.8034 21.0576Z" fill="#000008"/>
<path d="M41.1679 25.5569V24.5487C41.2599 24.5717 41.4672 24.5717 41.571 24.5717C42.1471 24.5717 42.4582 24.3298 42.6482 23.7076C42.6482 23.6961 42.7578 23.3389 42.7578 23.3331L40.5687 17.2667H41.9166L43.4492 22.1982H43.4721L45.0047 17.2667H46.3182L44.0482 23.6442C43.5299 25.1133 42.9307 25.5857 41.6748 25.5857C41.571 25.5857 41.2599 25.5742 41.1679 25.5569Z" fill="#000008"/>
</g>
<rect x="9.70631" y="4.6316" width="46.8384" height="30.2545" rx="5.49062" stroke="#D6DCE5" stroke-width="0.224107"/>
</g>
<defs>
<filter id="filter0_dd_411_212" x="0.630441" y="0.0373883" width="64.9911" height="48.4071" filterUnits="userSpaceOnUse" color-interpolation-filters="sRGB">
<feFlood flood-opacity="0" result="BackgroundImageFix"/>
<feColorMatrix in="SourceAlpha" type="matrix" values="0 0 0 0 0 0 0 0 0 0 0 0 0 0 0 0 0 0 127 0" result="hardAlpha"/>
<feOffset dy="0.448214"/>
<feGaussianBlur stdDeviation="2.24107"/>
<feColorMatrix type="matrix" values="0 0 0 0 0.717647 0 0 0 0 0.717647 0 0 0 0 0.717647 0 0 0 0.08 0"/>
<feBlend mode="normal" in2="BackgroundImageFix" result="effect1_dropShadow_411_212"/>
<feColorMatrix in="SourceAlpha" type="matrix" values="0 0 0 0 0 0 0 0 0 0 0 0 0 0 0 0 0 0 127 0" result="hardAlpha"/>
<feOffset dy="4.48214"/>
<feGaussianBlur stdDeviation="4.48214"/>
<feColorMatrix type="matrix" values="0 0 0 0 0.717647 0 0 0 0 0.717647 0 0 0 0 0.717647 0 0 0 0.08 0"/>
<feBlend mode="normal" in2="effect1_dropShadow_411_212" result="effect2_dropShadow_411_212"/>
<feBlend mode="normal" in="SourceGraphic" in2="effect2_dropShadow_411_212" result="shape"/>
</filter>
</defs>
</svg>
