<svg width="66" height="49" viewBox="0 0 66 49" fill="none" xmlns="http://www.w3.org/2000/svg">
<g id="Badge" filter="url(#filter0_dd_411_214)">
<rect x="9.43262" y="4.74365" width="46.6143" height="30.0304" rx="5.37857" fill="white"/>
<g id="G Pay">
<path d="M31.7261 23.358H30.6776V15.1997H33.4571C34.1615 15.1997 34.7622 15.4345 35.2536 15.9041C35.756 16.3737 36.0072 16.9471 36.0072 17.6242C36.0072 18.3178 35.756 18.8911 35.2536 19.3553C34.7676 19.8194 34.167 20.0488 33.4571 20.0488H31.7261V23.358ZM31.7261 16.2045V19.0495H33.4789C33.8939 19.0495 34.2434 18.9075 34.5164 18.629C34.7949 18.3505 34.9369 18.012 34.9369 17.6297C34.9369 17.2529 34.7949 16.9198 34.5164 16.6413C34.2434 16.3519 33.8994 16.2099 33.4789 16.2099H31.7261V16.2045Z" fill="#3C4043"/>
<path d="M38.7483 17.5915C39.5238 17.5915 40.1353 17.799 40.5831 18.214C41.0309 18.629 41.2548 19.1969 41.2548 19.9177V23.358H40.2555V22.5825H40.2118C39.7804 23.2214 39.2016 23.5382 38.4808 23.5382C37.8637 23.5382 37.3504 23.358 36.9354 22.9921C36.5204 22.6262 36.3129 22.173 36.3129 21.6269C36.3129 21.0481 36.5313 20.5894 36.9682 20.2508C37.405 19.9068 37.9893 19.7375 38.7156 19.7375C39.3381 19.7375 39.8514 19.8522 40.25 20.0815V19.8413C40.25 19.4754 40.108 19.1696 39.8186 18.913C39.5292 18.6563 39.1907 18.5307 38.803 18.5307C38.2187 18.5307 37.7545 18.7764 37.4159 19.2734L36.4931 18.6945C37.0009 17.9573 37.7545 17.5915 38.7483 17.5915ZM37.3941 21.6433C37.3941 21.9163 37.5088 22.1457 37.7436 22.3259C37.9729 22.5061 38.246 22.5989 38.5572 22.5989C38.9995 22.5989 39.3927 22.4351 39.7367 22.1075C40.0807 21.7798 40.2555 21.3976 40.2555 20.9553C39.9278 20.6986 39.4746 20.5675 38.8903 20.5675C38.4644 20.5675 38.1094 20.6713 37.8255 20.8733C37.5361 21.0863 37.3941 21.343 37.3941 21.6433Z" fill="#3C4043"/>
<path d="M46.9558 17.7717L43.4609 25.8098H42.3797L43.6794 22.9976L41.375 17.7717H42.5163L44.1763 21.7799H44.1981L45.8145 17.7717H46.9558Z" fill="#3C4043"/>
<path d="M27.5557 19.388C27.5557 19.0462 27.5251 18.7191 27.4683 18.4046H23.0736V20.2066L25.6046 20.2071C25.5019 20.8067 25.1716 21.3178 24.6654 21.6586V22.8277H26.172C27.0517 22.0135 27.5557 20.81 27.5557 19.388Z" fill="#4285F4"/>
<path d="M24.6659 21.6586C24.2465 21.9415 23.7065 22.107 23.0747 22.107C21.8542 22.107 20.8189 21.2846 20.4481 20.1761H18.894V21.3818C19.6639 22.9097 21.2464 23.9581 23.0747 23.9581C24.3383 23.9581 25.3998 23.5426 26.1725 22.8272L24.6659 21.6586Z" fill="#34A853"/>
<path d="M20.3017 19.2816C20.3017 18.9703 20.3536 18.6694 20.448 18.3865V17.1808H18.8939C18.5756 17.8126 18.3965 18.5258 18.3965 19.2816C18.3965 20.0373 18.5761 20.7505 18.8939 21.3823L20.448 20.1766C20.3536 19.8937 20.3017 19.5928 20.3017 19.2816Z" fill="#FABB05"/>
<path d="M23.0747 16.4557C23.7643 16.4557 24.3819 16.6932 24.8696 17.1574L26.2047 15.8233C25.3938 15.0681 24.3366 14.6045 23.0747 14.6045C21.247 14.6045 19.6639 15.6529 18.8939 17.1808L20.448 18.3865C20.8188 17.278 21.8542 16.4557 23.0747 16.4557Z" fill="#E94235"/>
</g>
<rect x="9.32056" y="4.6316" width="46.8384" height="30.2545" rx="5.49062" stroke="#D6DCE5" stroke-width="0.224107"/>
</g>
<defs>
<filter id="filter0_dd_411_214" x="0.244699" y="0.0373883" width="64.9911" height="48.4071" filterUnits="userSpaceOnUse" color-interpolation-filters="sRGB">
<feFlood flood-opacity="0" result="BackgroundImageFix"/>
<feColorMatrix in="SourceAlpha" type="matrix" values="0 0 0 0 0 0 0 0 0 0 0 0 0 0 0 0 0 0 127 0" result="hardAlpha"/>
<feOffset dy="0.448214"/>
<feGaussianBlur stdDeviation="2.24107"/>
<feColorMatrix type="matrix" values="0 0 0 0 0.717647 0 0 0 0 0.717647 0 0 0 0 0.717647 0 0 0 0.08 0"/>
<feBlend mode="normal" in2="BackgroundImageFix" result="effect1_dropShadow_411_214"/>
<feColorMatrix in="SourceAlpha" type="matrix" values="0 0 0 0 0 0 0 0 0 0 0 0 0 0 0 0 0 0 127 0" result="hardAlpha"/>
<feOffset dy="4.48214"/>
<feGaussianBlur stdDeviation="4.48214"/>
<feColorMatrix type="matrix" values="0 0 0 0 0.717647 0 0 0 0 0.717647 0 0 0 0 0.717647 0 0 0 0.08 0"/>
<feBlend mode="normal" in2="effect1_dropShadow_411_214" result="effect2_dropShadow_411_214"/>
<feBlend mode="normal" in="SourceGraphic" in2="effect2_dropShadow_411_214" result="shape"/>
</filter>
</defs>
</svg>
