<svg width="66" height="49" viewBox="0 0 66 49" fill="none" xmlns="http://www.w3.org/2000/svg">
<g id="Badge" filter="url(#filter0_dd_411_206)">
<rect x="9.97559" y="4.74365" width="46.6143" height="30.0304" rx="5.37857" fill="white"/>
<path id="Visa" d="M32.9978 14.8646L30.8236 25.0282H28.1945L30.369 14.8646H32.9978ZM44.0595 21.4273L45.4437 17.6105L46.2402 21.4273H44.0595ZM46.9929 25.0282H49.4248L47.3027 14.8646H45.058C44.5536 14.8646 44.128 15.158 43.9386 15.6103L39.9941 25.0282H42.7551L43.3032 23.5105H46.6764L46.9929 25.0282ZM40.1311 21.7097C40.1424 19.0272 36.4215 18.8796 36.4472 17.6813C36.4549 17.3162 36.8027 16.9289 37.5622 16.8295C37.9395 16.7803 38.9769 16.7426 40.1549 17.2847L40.6162 15.1294C39.9835 14.8997 39.1693 14.6787 38.1566 14.6787C35.5581 14.6787 33.729 16.0603 33.7136 18.0387C33.6972 19.5017 35.0193 20.3181 36.0155 20.8045C37.0398 21.3028 37.384 21.6219 37.3795 22.0674C37.3727 22.7497 36.5624 23.0502 35.8064 23.0621C34.4843 23.083 33.7171 22.7053 33.1056 22.4203L32.6292 24.6473C33.2433 24.9294 34.3772 25.1746 35.5536 25.1871C38.3152 25.1871 40.1221 23.8225 40.1311 21.7097ZM29.2409 14.8646L24.9812 25.0282H22.2015L20.1055 16.917C19.9781 16.4174 19.8674 16.2347 19.4804 16.024C18.849 15.6814 17.8051 15.3594 16.8867 15.1599L16.9494 14.8646H21.4231C21.9931 14.8646 22.5062 15.2442 22.6355 15.9008L23.7427 21.7824L26.4786 14.8646H29.2409Z" fill="#1434CB"/>
<rect x="9.86353" y="4.6316" width="46.8384" height="30.2545" rx="5.49062" stroke="#D6DCE5" stroke-width="0.224107"/>
</g>
<defs>
<filter id="filter0_dd_411_206" x="0.787667" y="0.0373883" width="64.9911" height="48.4071" filterUnits="userSpaceOnUse" color-interpolation-filters="sRGB">
<feFlood flood-opacity="0" result="BackgroundImageFix"/>
<feColorMatrix in="SourceAlpha" type="matrix" values="0 0 0 0 0 0 0 0 0 0 0 0 0 0 0 0 0 0 127 0" result="hardAlpha"/>
<feOffset dy="0.448214"/>
<feGaussianBlur stdDeviation="2.24107"/>
<feColorMatrix type="matrix" values="0 0 0 0 0.717647 0 0 0 0 0.717647 0 0 0 0 0.717647 0 0 0 0.08 0"/>
<feBlend mode="normal" in2="BackgroundImageFix" result="effect1_dropShadow_411_206"/>
<feColorMatrix in="SourceAlpha" type="matrix" values="0 0 0 0 0 0 0 0 0 0 0 0 0 0 0 0 0 0 127 0" result="hardAlpha"/>
<feOffset dy="4.48214"/>
<feGaussianBlur stdDeviation="4.48214"/>
<feColorMatrix type="matrix" values="0 0 0 0 0.717647 0 0 0 0 0.717647 0 0 0 0 0.717647 0 0 0 0.08 0"/>
<feBlend mode="normal" in2="effect1_dropShadow_411_206" result="effect2_dropShadow_411_206"/>
<feBlend mode="normal" in="SourceGraphic" in2="effect2_dropShadow_411_206" result="shape"/>
</filter>
</defs>
</svg>
